<svg width="27" height="27" viewBox="0 0 27 27" fill="none" xmlns="http://www.w3.org/2000/svg">
<path d="M13.6719 21.7644V17.4511M13.6719 5.39062V9.70373M5.48047 13.582H9.7936M21.8521 13.582H17.5391M7.8828 19.3692L10.9326 16.3193M19.4561 7.79293L16.4062 10.8428M7.875 7.79203L10.9248 10.8418M19.4522 19.3702L16.4023 16.3203M13.6426 16.9981C15.6565 16.9981 17.2891 15.3655 17.2891 13.3516C17.2891 11.3377 15.6565 9.70513 13.6426 9.70513C11.6287 9.70513 9.9961 11.3377 9.9961 13.3516C9.9961 15.3655 11.6287 16.9981 13.6426 16.9981ZM13.6684 21.7648C14.7214 21.7648 15.5751 22.6184 15.5751 23.6714C15.5751 24.7245 14.7214 25.5781 13.6684 25.5781C12.6154 25.5781 11.7617 24.7245 11.7617 23.6714C11.7617 22.6184 12.6154 21.7648 13.6684 21.7648ZM13.6684 5.39147C14.7214 5.39147 15.5751 4.53782 15.5751 3.4848C15.5751 2.43178 14.7214 1.57812 13.6684 1.57812C12.6154 1.57812 11.7617 2.43178 11.7617 3.4848C11.7617 4.53782 12.6154 5.39147 13.6684 5.39147ZM5.4813 13.5785C5.4813 14.6315 4.62766 15.4852 3.57464 15.4852C2.52161 15.4852 1.66797 14.6315 1.66797 13.5785C1.66797 12.5255 2.52161 11.6719 3.57464 11.6719C4.62766 11.6719 5.4813 12.5255 5.4813 13.5785ZM21.8546 13.5785C21.8546 14.6315 22.7083 15.4852 23.7613 15.4852C24.8143 15.4852 25.668 14.6315 25.668 13.5785C25.668 12.5255 24.8143 11.6719 23.7613 11.6719C22.7083 11.6719 21.8546 12.5255 21.8546 13.5785ZM7.8767 19.3666C8.6213 20.1112 8.6213 21.3184 7.8767 22.063C7.1321 22.8076 5.92485 22.8076 5.18025 22.063C4.43565 21.3184 4.43565 20.1112 5.18025 19.3666C5.92485 18.622 7.1321 18.622 7.8767 19.3666ZM19.4565 7.78883C20.2011 8.53343 21.4083 8.53343 22.1529 7.78883C22.8975 7.0442 22.8975 5.83697 22.1529 5.09237C21.4083 4.34777 20.2011 4.34777 19.4565 5.09237C18.7119 5.83696 18.7119 7.0442 19.4565 7.78883ZM7.8795 7.78883C7.1349 8.53343 5.92763 8.53343 5.18303 7.78883C4.43843 7.0442 4.43843 5.83697 5.18303 5.09237C5.92763 4.34777 7.1349 4.34777 7.8795 5.09237C8.6241 5.83697 8.6241 7.0442 7.8795 7.78883ZM19.4554 19.3666C18.7108 20.1112 18.7108 21.3184 19.4554 22.063C20.1999 22.8076 21.4072 22.8076 22.1518 22.063C22.8964 21.3184 22.8964 20.1112 22.1518 19.3666C21.4072 18.622 20.2 18.622 19.4554 19.3666Z" stroke="black" stroke-width="2" stroke-linejoin="round"/>
</svg>
