<svg width="133" height="38" viewBox="0 0 133 38" fill="none" xmlns="http://www.w3.org/2000/svg">
<path d="M46.0028 30.191V7.74074H50.2818V30.191H46.0028Z" fill="#D82326"/>
<path d="M59.4426 30.5117C55.4854 30.5117 52.8794 27.6894 52.8794 23.1994V14.3475H57.1584V22.9428C57.1584 25.3802 58.4775 26.7914 60.5365 26.7914C62.8207 26.7914 64.3328 25.0916 64.3328 22.6541V14.3475H68.6117V30.191H64.9119L64.6224 28.3629C63.3676 29.742 61.5338 30.5117 59.4426 30.5117Z" fill="#D82326"/>
<path d="M71.4542 30.191V14.3475H75.1541L75.4436 16.2077C76.5053 14.8286 78.1139 14.0268 79.9799 14.0268C82.1676 14.0268 83.9693 15.021 84.9345 16.6567C86.1892 14.9248 88.0552 14.0268 90.5003 14.0268C94.554 14.0268 97.0635 16.5605 97.0635 20.7619V30.191H92.7845V21.243C92.7845 18.998 91.7228 17.7472 89.8247 17.7472C87.7656 17.7472 86.3822 19.2225 86.3822 21.4675V30.191H82.1355V21.243C82.1355 18.998 81.0738 17.7472 79.1756 17.7472C77.1166 17.7472 75.7332 19.2225 75.7332 21.4675V30.191H71.4542Z" fill="#D82326"/>
<path d="M107.487 30.608C102.114 30.608 98.704 27.3687 98.704 22.3014C98.704 17.3623 102.082 14.0268 107.069 14.0268C112.828 14.0268 116.013 17.8113 115.305 23.6804H103.047C103.337 25.6689 105.074 26.9838 107.648 26.9838C109.353 26.9838 111.058 26.4065 112.088 25.4765L114.468 27.9139C112.796 29.6137 110.254 30.608 107.487 30.608ZM103.112 20.8581H111.283C111.123 18.8055 109.578 17.5227 107.198 17.5227C104.945 17.5227 103.433 18.7414 103.112 20.8581Z" fill="#D82326"/>
<path d="M117.139 30.191V14.3475H120.839L121.128 16.1756C122.383 14.7965 124.249 14.0268 126.34 14.0268C130.394 14.0268 133 16.8491 133 21.3392V30.191H128.721V21.5958C128.721 19.1583 127.402 17.7472 125.279 17.7472C122.962 17.7472 121.418 19.447 121.418 21.8844V30.191H117.139Z" fill="#D82326"/>
<path d="M1.20907 12.309C3.90932 5.11678 10.8376 0 18.9579 0C26.0362 0 32.2084 3.88773 35.4645 9.64857C31.7081 10.4787 27.459 12.5202 24.5674 9.78385C22.6483 7.96758 24.6737 6.3383 23.3639 4.43958C22.9851 3.89029 22.1332 3.39528 21.5143 3.16026C14.6859 0.571697 7.95249 8.03946 1.20907 12.309Z" fill="#D82326"/>
<path d="M0.0338648 20.1448C0.0115012 19.7662 0 19.3844 0 19C0 18.2594 0.0421715 17.5289 0.124438 16.8104C0.450307 16.6556 0.775378 16.4864 1.09965 16.3031C5.75639 13.67 15.2433 4.90609 20.7104 8.66511C22.4056 9.83075 21.4732 11.2193 21.6556 12.7032C21.8412 14.2125 23.8765 15.4544 25.2102 15.8327C29.143 16.9481 33.0705 14.0086 36.9645 13.0408C37.2891 14.0257 37.5349 15.0458 37.6956 16.0944C32.8751 17.5704 28.1634 21.9659 23.4077 20.2021C23.0196 20.0581 22.1194 19.5629 21.85 19.271C20.2868 17.5787 22.5508 15.2727 20.1403 13.5084C14.3082 9.24113 6.09999 17.5721 0.0338648 20.1448Z" fill="#D82326"/>
<path d="M35.3049 28.6287C32.009 34.2367 25.9223 38 18.9579 38C12.4643 38 6.73336 34.7277 3.317 29.7388C7.60123 28.3886 11.9775 25.4335 15.682 28.0874C17.5163 29.4012 16.4588 30.7426 16.6981 32.4799C16.8634 33.6826 18.1008 34.4778 19.1447 34.8697C24.5659 36.9067 29.9246 32.2476 35.3049 28.6287Z" fill="#D82326"/>
<path d="M37.8996 19.7878C37.8504 21.0098 37.6854 22.2019 37.4152 23.3538C31.9267 26.1487 26.4697 31.7526 20.8374 29.8979C20.0571 29.641 19.2552 29.1737 18.9306 28.3911C18.1548 26.5206 19.8081 25.1756 17.7479 23.4533C12.9073 19.407 7.04389 24.7375 1.53686 26.5057C1.13927 25.5804 0.812917 24.6171 0.56516 23.6226C0.75557 23.5736 0.945182 23.5185 1.13304 23.4564C5.98034 21.8575 12.5575 15.1616 17.9546 18.2624C20.4446 19.6929 18.1851 22.2653 19.8975 24.0047C24.6107 28.7931 32.5363 22.0692 37.8996 19.7878Z" fill="#D82326"/>
</svg>
