<svg width="19" height="18" viewBox="0 0 19 18" fill="none" xmlns="http://www.w3.org/2000/svg">
<path d="M9.90609 0.5C9.39546 0.5 8.92997 0.765077 8.00055 1.29289L2.90936 4.18223C2.03269 4.66998 1.30212 5.37677 0.791331 6.23131C0.280538 7.08585 0.00758558 8.05793 0 9.04951L0 9.2335C0.00764194 10.2238 0.279967 11.1947 0.78958 12.0484C1.29919 12.9021 2.02812 13.6087 2.90303 14.0969L6.08789 15.908C7.95147 16.9683 8.88326 17.5 9.90688 17.5C10.9297 17.5008 11.8623 16.9714 13.7267 15.9111L17.092 13.9986C18.0238 13.4685 18.4885 13.2034 18.7442 12.7676C18.9999 12.331 19.0007 11.8008 18.9999 10.7405V8.69009C19.0001 8.54784 18.9622 8.40804 18.8902 8.28475C18.8182 8.16145 18.7144 8.05899 18.5895 7.98766C18.4645 7.91633 18.3226 7.87863 18.1782 7.87835C18.0338 7.87807 17.8918 7.91523 17.7665 7.98608L10.8569 11.903C10.3922 12.1657 10.1602 12.2983 9.90609 12.2983C9.65038 12.2983 9.41842 12.1673 8.95292 11.9038L4.27894 9.25845C4.04382 9.12513 3.92586 9.05886 3.83165 9.04717C3.7276 9.03404 3.62206 9.05503 3.53134 9.10688C3.44062 9.15874 3.36977 9.23859 3.32974 9.33407C3.29411 9.42061 3.29411 9.55393 3.2957 9.82135C3.29728 10.0178 3.2957 10.1161 3.31549 10.2065C3.35745 10.4084 3.46511 10.5908 3.62186 10.7265C3.69232 10.7865 3.77861 10.8357 3.95119 10.9339L8.95055 13.7796C9.41684 14.0446 9.65038 14.1772 9.90609 14.1772C10.1626 14.1772 10.3945 14.0446 10.8608 13.7803L16.9883 10.2961C17.1482 10.2057 17.2274 10.162 17.2868 10.1948C17.3461 10.2291 17.3461 10.3195 17.3461 10.5004V11.4305C17.3461 11.6956 17.3469 11.8281 17.2828 11.9365C17.2195 12.0457 17.1031 12.1111 16.8696 12.2437L11.8172 15.1166C10.8846 15.6468 10.4183 15.9119 9.90688 15.9119C9.39546 15.9119 8.92838 15.6468 7.99739 15.1151L3.27115 12.4238L3.23711 12.4043C2.75035 12.1236 2.34615 11.7229 2.06424 11.2418C1.78234 10.7606 1.63242 10.2155 1.62924 9.65996V8.7665C1.62947 8.45956 1.71148 8.15805 1.86707 7.89209C2.02266 7.62613 2.24639 7.40503 2.51591 7.25088C2.75429 7.11491 3.02486 7.04324 3.30034 7.04311C3.57582 7.04297 3.84646 7.11437 4.08498 7.2501L8.00055 9.47831C8.92997 10.0077 9.39546 10.2728 9.90609 10.2735C10.4167 10.2735 10.8822 10.0085 11.814 9.48065L17.7372 6.12353C17.8688 6.04894 17.978 5.94153 18.054 5.81212C18.13 5.68271 18.17 5.53586 18.17 5.38638C18.17 5.23689 18.13 5.09005 18.054 4.96064C17.978 4.83122 17.8688 4.72382 17.7372 4.64923L11.8116 1.28977C10.8814 0.763517 10.4167 0.5 9.90688 0.5H9.90609Z" fill="black"/>
</svg>
