<svg width="21" height="18" viewBox="0 0 21 18" fill="none" xmlns="http://www.w3.org/2000/svg">
<path d="M21.0001 2.5C20.2301 2.85 19.4001 3.08 18.5401 3.19C19.4201 2.66 20.1001 1.82 20.4201 0.81C19.5901 1.31 18.6701 1.66 17.7001 1.86C16.9101 1 15.8001 0.5 14.5401 0.5C12.1901 0.5 10.2701 2.42 10.2701 4.79C10.2701 5.13 10.3101 5.46 10.3801 5.77C6.82008 5.59 3.65008 3.88 1.54008 1.29C1.17008 1.92 0.960078 2.66 0.960078 3.44C0.960078 4.93 1.71008 6.25 2.87008 7C2.16008 7 1.50008 6.8 0.920078 6.5V6.53C0.920078 8.61 2.40008 10.35 4.36008 10.74C3.73081 10.9122 3.07017 10.9362 2.43008 10.81C2.70168 11.6625 3.23361 12.4084 3.95109 12.9429C4.66857 13.4775 5.53553 13.7737 6.43008 13.79C4.91371 14.9904 3.03407 15.6393 1.10008 15.63C0.760078 15.63 0.420078 15.61 0.0800781 15.57C1.98008 16.79 4.24008 17.5 6.66008 17.5C14.5401 17.5 18.8701 10.96 18.8701 5.29C18.8701 5.1 18.8701 4.92 18.8601 4.73C19.7001 4.13 20.4201 3.37 21.0001 2.5Z" fill="black"/>
</svg>
